<?xml version="1.0" standalone="no"?>
<!DOCTYPE svg PUBLIC "-//W3C//DTD SVG 20010904//EN"
 "http://www.w3.org/TR/2001/REC-SVG-20010904/DTD/svg10.dtd">
<svg version="1.0" xmlns="http://www.w3.org/2000/svg"
 width="1000.000000pt" height="1000.000000pt" viewBox="0 0 1000.000000 1000.000000"
 preserveAspectRatio="xMidYMid meet">

<g transform="translate(0.000000,1000.000000) scale(0.100000,-0.100000)"
fill="#000000" stroke="none">
<path d="M5638 9271 c-130 -42 -227 -277 -332 -801 l-41 -205 -230 -76 c-236
-78 -384 -131 -538 -193 -48 -20 -96 -36 -105 -36 -9 0 -85 25 -169 55 -329
119 -571 166 -686 134 -74 -20 -127 -92 -127 -173 0 -15 18 -118 39 -229 61
-310 82 -429 79 -432 -5 -5 -498 -125 -514 -125 -42 0 -18 -35 171 -256 41
-48 75 -90 75 -93 0 -6 -35 -25 -482 -256 -156 -80 -268 -144 -268 -152 0 -7
176 -225 392 -483 l391 -469 1 -118 c1 -109 4 -126 40 -228 21 -60 64 -163 97
-229 32 -65 59 -121 59 -125 0 -4 -33 -19 -72 -33 -40 -15 -221 -81 -403 -148
-294 -108 -680 -250 -820 -301 -27 -10 -92 -34 -144 -53 -63 -23 -99 -32 -110
-26 -13 7 -208 154 -925 702 -37 29 -105 81 -150 115 -437 335 -569 434 -574
429 -3 -4 2 -55 11 -114 9 -59 28 -183 42 -277 14 -93 32 -210 40 -260 8 -49
26 -162 39 -250 13 -88 34 -221 45 -295 37 -238 138 -898 175 -1140 20 -129
43 -275 51 -325 8 -49 35 -225 60 -390 25 -165 66 -428 90 -585 25 -157 74
-478 110 -715 36 -236 68 -438 71 -447 5 -17 122 -18 2268 -18 l2263 0 11 -25
c7 -14 12 -35 12 -45 0 -15 7 -20 25 -20 23 0 25 -4 25 -45 l0 -45 51 0 52 0
-6 50 c-6 47 -5 50 17 50 22 0 24 -4 22 -53 -1 -50 0 -52 27 -55 27 -3 27 -2
27 52 l0 56 70 0 c63 0 70 -2 70 -20 0 -17 -7 -20 -50 -20 -49 0 -50 -1 -50
-30 0 -28 3 -30 38 -31 20 -1 54 -3 76 -5 l39 -3 -6 55 -6 56 64 -4 c78 -5 95
-18 95 -73 0 -39 2 -42 25 -42 24 0 25 2 25 58 l0 59 69 0 c46 0 71 -4 74 -12
2 -7 8 -10 12 -6 4 4 2 15 -5 23 -10 12 -30 15 -89 13 -70 -3 -76 -5 -79 -25
l-3 -23 -30 22 c-35 26 -140 38 -164 18 -12 -10 -18 -10 -29 -1 -9 7 -41 11
-82 9 -59 -3 -70 -6 -79 -25 l-11 -21 -9 21 c-14 31 -66 30 -80 0 -24 -56 -52
-16 -134 195 -36 92 -38 104 -23 110 9 4 193 7 407 7 351 -1 404 -3 530 -23
177 -27 460 -83 476 -93 11 -6 38 -152 39 -207 l0 -23 -322 1 c-178 0 -347 1
-375 0 -52 0 -53 -1 -53 -30 0 -28 2 -30 40 -30 22 0 40 -3 40 -7 0 -5 284 -9
631 -9 l631 -1 -5 26 c-3 14 -23 94 -45 176 -21 83 -42 163 -46 178 l-7 29
243 -7 c342 -9 1140 -47 1249 -60 l47 -5 182 216 c100 118 180 217 178 219 -1
2 -55 24 -118 50 -63 26 -119 51 -124 56 -6 5 -3 80 8 196 28 307 53 607 66
793 7 96 15 218 19 270 9 105 15 272 16 395 l0 80 -75 39 c-109 57 -534 229
-1022 413 -112 42 -148 60 -148 73 0 10 13 84 29 166 16 82 42 214 56 294 15
80 33 172 41 205 7 33 10 63 6 67 -8 7 -222 54 -446 97 -88 17 -161 33 -163
35 -5 4 66 208 102 295 65 158 163 336 248 454 l49 67 229 0 230 0 -12 21
c-15 29 -128 189 -152 216 -11 12 -17 29 -14 37 7 19 175 137 304 214 213 128
570 296 912 428 l74 28 -229 113 c-445 220 -581 282 -751 344 -95 34 -173 66
-173 70 0 5 24 48 53 96 97 160 202 354 366 676 l161 317 -142 0 c-79 0 -291
-5 -473 -10 -181 -5 -445 -12 -585 -15 l-255 -6 -105 117 c-58 64 -197 212
-310 327 -548 562 -1003 932 -1243 1011 -60 20 -144 28 -179 17z m83 -368
c529 -360 1167 -841 1639 -1236 l95 -79 510 6 c281 4 538 9 573 12 49 5 62 3
62 -7 0 -19 -135 -304 -199 -419 -59 -106 -191 -331 -252 -429 -22 -35 -37
-66 -35 -69 3 -2 94 -35 203 -72 109 -36 241 -84 293 -105 126 -50 480 -221
480 -232 0 -4 -116 -65 -258 -135 -238 -117 -438 -228 -670 -372 l-93 -58 -47
54 c-26 29 -87 96 -136 148 -50 52 -93 99 -97 104 -4 4 -35 -4 -69 -20 l-62
-27 139 -137 c133 -131 236 -255 322 -389 22 -35 41 -70 41 -78 0 -10 -33 -13
-157 -14 -293 -1 -675 -36 -963 -88 -250 -46 -321 -61 -347 -74 -16 -8 -49
-17 -75 -20 l-48 -7 0 334 c0 328 -4 396 -21 396 -10 0 -349 -124 -845 -307
-9 -3 -110 194 -103 202 2 1 114 46 249 100 135 53 288 114 340 135 52 22 183
74 290 116 l195 77 127 -32 c70 -18 135 -31 144 -29 24 4 -43 71 -189 187
-164 131 -155 141 58 67 189 -67 464 -136 638 -161 27 -3 57 -8 68 -10 10 -2
19 2 19 9 0 32 -251 411 -427 646 -29 39 -53 78 -53 87 0 13 59 48 212 128
304 158 481 265 467 282 -6 7 -19 13 -29 13 -15 0 -130 30 -285 75 -300 87
-703 225 -825 283 -148 71 -267 192 -354 362 -45 89 -99 237 -112 305 -15 87
-59 123 -110 90 -51 -33 -41 -95 45 -260 69 -134 131 -228 209 -320 33 -38 59
-71 57 -73 -14 -15 -859 414 -879 447 -3 4 15 73 40 152 25 79 54 171 64 204
10 33 34 107 54 165 20 58 36 106 36 108 0 9 25 -3 71 -35z m30 -839 c379
-190 730 -345 1004 -444 91 -33 526 -175 658 -214 48 -15 87 -30 87 -35 0 -9
-98 -49 -650 -264 -68 -26 -80 -35 -80 -57 0 -9 28 -71 61 -136 34 -65 88
-171 121 -234 59 -115 59 -115 35 -118 -56 -7 -410 105 -599 189 -131 58 -292
147 -375 205 -34 24 -66 44 -71 44 -18 0 -162 -103 -162 -116 0 -7 99 -111
221 -231 199 -197 218 -218 195 -221 -15 -2 -46 3 -69 12 -23 8 -134 40 -247
71 -113 31 -216 60 -230 65 -14 5 -72 22 -130 39 -58 17 -210 62 -339 101
-129 38 -240 70 -247 70 -31 0 -21 25 40 94 67 77 164 205 184 243 17 31 15
51 -8 63 -23 13 -18 18 -119 -135 -44 -66 -104 -147 -133 -179 l-53 -59 -95
31 c-78 25 -281 87 -352 108 -29 8 -21 -10 40 -103 33 -48 65 -99 72 -113 7
-14 24 -37 38 -52 20 -22 23 -30 13 -42 -7 -8 -71 -34 -143 -57 -71 -23 -132
-49 -135 -56 -3 -8 1 -21 9 -29 13 -14 22 -13 74 2 32 9 99 34 149 55 70 31
92 36 101 26 7 -6 54 -70 105 -142 88 -123 242 -330 396 -530 38 -49 129 -162
202 -249 107 -128 130 -161 119 -171 -11 -10 -121 -53 -271 -106 -45 -16 -29
-25 -304 157 -272 181 -645 463 -843 638 -190 168 -381 352 -510 491 -183 198
-351 396 -347 410 3 9 64 25 417 109 444 106 580 141 580 148 0 4 -45 79 -100
167 -55 88 -100 164 -100 169 0 9 179 83 495 205 182 71 574 202 810 272 50
15 108 33 130 40 22 7 46 14 53 14 6 1 143 -64 303 -145z m-1976 -191 c61 -19
135 -43 165 -53 30 -10 56 -22 57 -27 2 -5 -37 -28 -87 -50 l-91 -42 48 -73
c26 -40 65 -97 86 -127 20 -30 37 -60 37 -67 0 -11 -269 -84 -312 -84 -20 0
-24 28 -38 289 -14 266 -14 285 8 276 9 -4 67 -23 127 -42z m-326 -1235 c31
-35 112 -120 180 -190 69 -70 123 -129 120 -132 -2 -2 -35 -9 -73 -15 -102
-18 -211 -63 -312 -131 -97 -65 -129 -99 -119 -130 11 -33 32 -23 80 40 58 75
112 115 133 97 27 -22 327 -369 330 -382 3 -12 -22 -25 -153 -76 -44 -17 -113
-48 -153 -69 l-73 -38 -79 71 c-116 106 -335 350 -471 527 -65 85 -119 158
-119 162 0 17 604 327 639 328 8 0 39 -28 70 -62z m2184 -144 c106 -31 206
-61 224 -66 35 -10 49 -23 34 -33 -19 -11 -443 -155 -458 -155 -8 0 -29 -6
-46 -14 -18 -7 -52 -22 -77 -32 -66 -27 -130 -64 -130 -75 0 -5 2 -9 4 -9 2 0
176 54 387 120 460 144 479 148 539 128 l44 -14 -350 -127 c-192 -70 -410
-149 -484 -177 -74 -27 -140 -50 -146 -50 -12 0 -74 74 -74 89 0 5 5 11 11 13
5 2 13 21 16 43 4 31 -1 48 -19 75 -26 39 -116 90 -159 90 -19 0 -32 7 -40 23
-6 12 -21 32 -32 44 -11 13 -19 24 -16 26 2 2 49 21 104 41 55 21 114 44 132
52 43 18 254 59 321 63 13 0 110 -24 215 -55z m472 -345 c0 -30 -3 -34 -28
-37 -35 -4 -57 13 -57 45 0 27 34 45 65 33 15 -5 20 -16 20 -41z m-493 -151
c24 -20 28 -44 12 -67 -18 -25 -60 -28 -86 -4 -23 21 -23 38 2 63 23 23 49 26
72 8z m-1292 -198 c19 -6 89 -53 155 -106 146 -117 315 -244 413 -309 39 -27
72 -55 72 -61 0 -7 -12 -17 -27 -22 -42 -15 -278 -101 -363 -132 -41 -15 -151
-55 -245 -90 -638 -235 -704 -258 -714 -246 -19 25 -102 221 -130 311 -17 53
-34 129 -38 170 -11 132 34 183 257 295 47 23 130 72 185 108 60 40 119 71
150 78 62 15 237 17 285 4z m2116 -802 c-3 -365 -9 -1089 -12 -1609 l-7 -947
24 -14 c13 -9 84 -30 157 -49 130 -33 132 -34 132 -61 0 -35 -10 -35 -80 -2
-41 19 -65 24 -95 21 -22 -3 -164 -23 -315 -45 -151 -22 -333 -47 -405 -56
-216 -27 -279 -38 -292 -48 -7 -6 -13 -32 -13 -58 0 -54 14 -45 -155 -104 -55
-19 -120 -40 -145 -46 -25 -6 -63 -17 -85 -25 -52 -17 -232 -59 -365 -84 -238
-44 -504 -76 -832 -99 -53 -4 -99 -9 -101 -12 -3 -3 -9 -33 -13 -68 -8 -71
-12 -69 90 -52 33 6 108 17 166 25 224 32 490 79 720 129 165 36 542 137 585
156 33 15 128 40 133 36 2 -3 1 -88 -3 -190 l-7 -185 -27 -10 c-14 -5 -48 -17
-76 -25 -109 -33 -200 -72 -203 -88 -3 -17 35 -114 89 -223 41 -85 139 -325
139 -342 0 -7 11 -39 24 -71 13 -31 26 -66 30 -78 l6 -20 -482 -4 c-266 -2
-928 -5 -1473 -7 l-990 -3 -152 146 c-84 80 -153 152 -153 159 0 8 65 73 145
145 80 73 145 133 145 135 0 4 -79 393 -150 735 -33 162 -83 403 -110 535 -27
132 -81 395 -120 585 -39 190 -87 424 -106 520 -20 96 -39 178 -43 183 -8 8
-108 -10 -115 -21 -2 -4 32 -176 75 -382 44 -206 88 -415 98 -465 11 -49 58
-272 105 -495 47 -223 121 -574 165 -780 43 -206 77 -378 75 -381 -4 -7 -55
-21 -164 -45 -41 -9 -100 -22 -131 -29 -180 -43 -431 -43 -622 0 -140 33 -430
133 -452 157 -11 12 -25 93 -90 533 -66 449 -89 599 -121 810 -35 230 -45 295
-129 860 -25 165 -56 374 -70 465 -14 91 -32 210 -40 265 -8 55 -28 190 -45
300 -17 110 -37 247 -45 305 -8 58 -17 115 -20 128 -3 12 -1 22 5 22 5 0 283
-215 617 -477 865 -679 794 -625 822 -618 13 3 83 28 155 55 130 48 702 255
1476 535 223 80 470 170 550 200 80 29 377 137 660 239 283 102 767 277 1075
390 308 112 569 205 579 205 18 1 19 -16 12 -661z m1061 -50 c-3 -7 -35 -78
-70 -158 -36 -80 -77 -180 -92 -222 -32 -91 -19 -87 -205 -62 -63 8 -180 21
-260 28 -80 8 -146 15 -147 15 -2 1 -3 61 -3 135 0 120 2 135 18 140 16 5 116
24 437 82 77 14 172 31 210 39 94 17 118 18 112 3z m-780 -658 c19 -47 60
-140 90 -208 34 -76 53 -133 51 -150 -2 -22 -36 -58 -145 -156 l-143 -127 0
311 0 311 47 55 c26 30 51 53 55 52 5 -2 25 -41 45 -88z m905 -176 c48 -104
87 -193 86 -199 0 -5 -86 -93 -189 -194 -152 -149 -191 -182 -202 -173 -13 11
-97 150 -177 295 l-33 59 204 204 c112 112 208 203 213 201 5 -2 49 -88 98
-193z m1143 -1020 c122 -17 294 -50 303 -58 13 -14 -50 -1103 -74 -1276 -8
-55 -12 -64 -27 -52 -27 22 -364 95 -512 111 -227 25 -590 21 -795 -10 -193
-28 -319 -49 -347 -58 -24 -7 -35 -6 -43 4 -6 7 -27 76 -46 152 -20 75 -40
143 -46 150 -12 14 -6 35 36 128 116 263 270 489 419 618 123 106 211 160 354
216 240 95 471 117 778 75z m-2163 -920 c57 -26 109 -52 116 -58 15 -14 88
-373 79 -383 -4 -3 -49 1 -99 10 -328 59 -627 72 -913 42 -77 -8 -143 -15
-148 -15 -4 0 -6 73 -5 163 l3 162 185 27 c102 14 255 36 340 48 85 12 191 27
235 34 44 8 85 14 92 15 6 0 58 -20 115 -45z m485 -164 c97 -59 157 -254 106
-342 -17 -27 -17 -30 -2 -39 26 -14 76 -99 93 -158 20 -69 20 -110 0 -161 -16
-40 -16 -41 9 -61 15 -11 41 -50 59 -87 29 -59 33 -76 33 -148 0 -68 -3 -86
-20 -104 -14 -16 -16 -24 -8 -27 76 -27 151 -190 137 -297 -7 -51 -39 -96 -69
-96 -53 0 -123 71 -155 157 -28 74 -25 179 5 213 19 21 19 22 -5 41 -14 10
-28 19 -31 19 -15 0 -68 99 -84 154 -19 65 -15 134 9 171 14 21 12 24 -14 43
-73 55 -121 231 -86 316 16 38 16 38 -15 74 -92 104 -114 276 -42 331 32 26
40 26 80 1z m-390 -351 l122 -12 11 -50 c8 -39 65 -371 116 -676 5 -34 5 -34
-28 -27 -18 4 -114 16 -213 27 -270 31 -558 39 -860 26 -143 -6 -278 -11 -300
-11 l-39 -1 -29 70 c-122 301 -170 436 -159 447 5 5 53 24 106 43 201 70 466
134 656 159 133 18 457 20 617 5z m1838 -192 c178 -32 343 -76 425 -113 19 -9
89 -40 155 -69 66 -29 120 -58 120 -64 0 -7 -65 -93 -145 -193 l-145 -181
-130 7 c-146 8 -548 30 -820 46 -99 6 -256 14 -348 19 -93 5 -171 12 -174 14
-7 7 -115 429 -116 456 -2 30 8 33 218 67 230 36 331 43 590 39 191 -3 254 -8
370 -28z m-7240 -291 c189 -37 480 -83 700 -111 72 -9 141 -19 155 -22 15 -3
85 -64 174 -152 l149 -148 -659 -5 c-362 -3 -663 -2 -667 2 -7 6 -76 435 -77
474 0 4 10 6 23 3 12 -4 103 -22 202 -41z"/>
<path d="M5315 6491 c-3 -5 19 -20 48 -34 49 -22 97 -70 97 -95 0 -5 6 -15 14
-21 10 -8 16 -8 25 2 8 11 5 23 -15 53 -30 44 -44 57 -96 84 -41 22 -64 25
-73 11z"/>
<path d="M3628 5501 c-56 -12 -130 -61 -139 -93 -18 -68 62 -125 203 -144 44
-6 45 -6 51 24 8 39 60 98 109 123 51 26 49 56 -5 75 -48 17 -171 25 -219 15z"/>
<path d="M6118 5253 c7 -3 16 -2 19 1 4 3 -2 6 -13 5 -11 0 -14 -3 -6 -6z"/>
<path d="M5978 5203 c7 -3 16 -2 19 1 4 3 -2 6 -13 5 -11 0 -14 -3 -6 -6z"/>
<path d="M5798 5143 c7 -3 16 -2 19 1 4 3 -2 6 -13 5 -11 0 -14 -3 -6 -6z"/>
<path d="M5655 5090 c-3 -5 -1 -10 4 -10 6 0 11 5 11 10 0 6 -2 10 -4 10 -3 0
-8 -4 -11 -10z"/>
<path d="M5618 5073 c7 -3 16 -2 19 1 4 3 -2 6 -13 5 -11 0 -14 -3 -6 -6z"/>
<path d="M5445 5020 c-13 -5 -14 -9 -5 -9 8 0 24 4 35 9 13 5 14 9 5 9 -8 0
-24 -4 -35 -9z"/>
<path d="M5298 4963 c7 -3 16 -2 19 1 4 3 -2 6 -13 5 -11 0 -14 -3 -6 -6z"/>
<path d="M5988 4873 c7 -3 16 -2 19 1 4 3 -2 6 -13 5 -11 0 -14 -3 -6 -6z"/>
<path d="M4968 4843 c7 -3 16 -2 19 1 4 3 -2 6 -13 5 -11 0 -14 -3 -6 -6z"/>
<path d="M5838 4823 c7 -3 16 -2 19 1 4 3 -2 6 -13 5 -11 0 -14 -3 -6 -6z"/>
<path d="M6223 4715 c0 -27 2 -38 4 -22 2 15 2 37 0 50 -2 12 -4 0 -4 -28z"/>
<path d="M4645 4730 c3 -5 8 -10 11 -10 2 0 4 5 4 10 0 6 -5 10 -11 10 -5 0
-7 -4 -4 -10z"/>
<path d="M6048 4723 c-2 -5 0 -48 3 -98 l5 -90 2 98 c2 87 -1 111 -10 90z"/>
<path d="M5475 4700 c-13 -5 -14 -9 -5 -9 8 0 24 4 35 9 13 5 14 9 5 9 -8 0
-24 -4 -35 -9z"/>
<path d="M4498 4673 c7 -3 16 -2 19 1 4 3 -2 6 -13 5 -11 0 -14 -3 -6 -6z"/>
<path d="M4358 4623 c7 -3 16 -2 19 1 4 3 -2 6 -13 5 -11 0 -14 -3 -6 -6z"/>
<path d="M4318 4613 c7 -3 16 -2 19 1 4 3 -2 6 -13 5 -11 0 -14 -3 -6 -6z"/>
<path d="M641 4594 c0 -11 3 -14 6 -6 3 7 2 16 -1 19 -3 4 -6 -2 -5 -13z"/>
<path d="M4178 4563 c7 -3 16 -2 19 1 4 3 -2 6 -13 5 -11 0 -14 -3 -6 -6z"/>
<path d="M652 4520 c0 -19 2 -27 5 -17 2 9 2 25 0 35 -3 9 -5 1 -5 -18z"/>
<path d="M4978 4523 c7 -3 16 -2 19 1 4 3 -2 6 -13 5 -11 0 -14 -3 -6 -6z"/>
<path d="M6158 4473 c7 -3 16 -2 19 1 4 3 -2 6 -13 5 -11 0 -14 -3 -6 -6z"/>
<path d="M662 4435 c0 -16 2 -22 5 -12 2 9 2 23 0 30 -3 6 -5 -1 -5 -18z"/>
<path d="M3888 4453 c7 -3 16 -2 19 1 4 3 -2 6 -13 5 -11 0 -14 -3 -6 -6z"/>
<path d="M5173 4380 c0 -30 2 -43 4 -27 2 15 2 39 0 55 -2 15 -4 2 -4 -28z"/>
<path d="M3748 4403 c7 -3 16 -2 19 1 4 3 -2 6 -13 5 -11 0 -14 -3 -6 -6z"/>
<path d="M3678 4383 c7 -3 16 -2 19 1 4 3 -2 6 -13 5 -11 0 -14 -3 -6 -6z"/>
<path d="M5323 4320 c0 -25 2 -35 4 -22 2 12 2 32 0 45 -2 12 -4 2 -4 -23z"/>
<path d="M3568 4343 c7 -3 16 -2 19 1 4 3 -2 6 -13 5 -11 0 -14 -3 -6 -6z"/>
<path d="M3425 4290 c-3 -5 -1 -10 4 -10 6 0 11 5 11 10 0 6 -2 10 -4 10 -3 0
-8 -4 -11 -10z"/>
<path d="M3388 4273 c7 -3 16 -2 19 1 4 3 -2 6 -13 5 -11 0 -14 -3 -6 -6z"/>
<path d="M5183 4225 c0 -33 2 -45 4 -27 2 18 2 45 0 60 -2 15 -4 0 -4 -33z"/>
<path d="M3208 4213 c7 -3 16 -2 19 1 4 3 -2 6 -13 5 -11 0 -14 -3 -6 -6z"/>
<path d="M702 4170 c0 -19 2 -27 5 -17 2 9 2 25 0 35 -3 9 -5 1 -5 -18z"/>
<path d="M3028 4153 c7 -3 16 -2 19 1 4 3 -2 6 -13 5 -11 0 -14 -3 -6 -6z"/>
<path d="M711 4094 c0 -11 3 -14 6 -6 3 7 2 16 -1 19 -3 4 -6 -2 -5 -13z"/>
<path d="M2885 4100 c-3 -5 -1 -10 4 -10 6 0 11 5 11 10 0 6 -2 10 -4 10 -3 0
-8 -4 -11 -10z"/>
<path d="M2738 4043 c7 -3 16 -2 19 1 4 3 -2 6 -13 5 -11 0 -14 -3 -6 -6z"/>
<path d="M4721 3994 c0 -11 3 -14 6 -6 3 7 2 16 -1 19 -3 4 -6 -2 -5 -13z"/>
<path d="M2558 3983 c7 -3 16 -2 19 1 4 3 -2 6 -13 5 -11 0 -14 -3 -6 -6z"/>
<path d="M4705 3950 c-16 -7 -17 -9 -3 -9 9 -1 20 4 23 9 7 11 7 11 -20 0z"/>
<path d="M2418 3933 c7 -3 16 -2 19 1 4 3 -2 6 -13 5 -11 0 -14 -3 -6 -6z"/>
<path d="M4558 3893 c7 -3 16 -2 19 1 4 3 -2 6 -13 5 -11 0 -14 -3 -6 -6z"/>
<path d="M2200 3840 c0 -11 2 -20 4 -20 2 0 6 9 9 20 3 11 1 20 -4 20 -5 0 -9
-9 -9 -20z"/>
<path d="M4448 3853 c7 -3 16 -2 19 1 4 3 -2 6 -13 5 -11 0 -14 -3 -6 -6z"/>
<path d="M2212 3790 c0 -14 2 -19 5 -12 2 6 2 18 0 25 -3 6 -5 1 -5 -13z"/>
<path d="M2221 3734 c0 -11 3 -14 6 -6 3 7 2 16 -1 19 -3 4 -6 -2 -5 -13z"/>
<path d="M1831 3704 c0 -11 3 -14 6 -6 3 7 2 16 -1 19 -3 4 -6 -2 -5 -13z"/>
<path d="M775 3700 c3 -5 11 -10 16 -10 6 0 7 5 4 10 -3 6 -11 10 -16 10 -6 0
-7 -4 -4 -10z"/>
<path d="M781 3664 c0 -11 3 -14 6 -6 3 7 2 16 -1 19 -3 4 -6 -2 -5 -13z"/>
<path d="M3948 3673 c7 -3 16 -2 19 1 4 3 -2 6 -13 5 -11 0 -14 -3 -6 -6z"/>
<path d="M840 3652 c0 -4 10 -13 23 -21 22 -14 22 -14 3 8 -20 22 -26 25 -26
13z"/>
<path d="M3878 3653 c7 -3 16 -2 19 1 4 3 -2 6 -13 5 -11 0 -14 -3 -6 -6z"/>
<path d="M2251 3634 c0 -11 3 -14 6 -6 3 7 2 16 -1 19 -3 4 -6 -2 -5 -13z"/>
<path d="M3768 3613 c7 -3 16 -2 19 1 4 3 -2 6 -13 5 -11 0 -14 -3 -6 -6z"/>
<path d="M791 3594 c0 -11 3 -14 6 -6 3 7 2 16 -1 19 -3 4 -6 -2 -5 -13z"/>
<path d="M3730 3599 c0 -5 5 -7 10 -4 6 3 10 8 10 11 0 2 -4 4 -10 4 -5 0 -10
-5 -10 -11z"/>
<path d="M2261 3584 c0 -11 3 -14 6 -6 3 7 2 16 -1 19 -3 4 -6 -2 -5 -13z"/>
<path d="M977 3539 c7 -7 15 -10 18 -7 3 3 -2 9 -12 12 -14 6 -15 5 -6 -5z"/>
<path d="M2271 3534 c0 -11 3 -14 6 -6 3 7 2 16 -1 19 -3 4 -6 -2 -5 -13z"/>
<path d="M811 3514 c0 -11 3 -14 6 -6 3 7 2 16 -1 19 -3 4 -6 -2 -5 -13z"/>
<path d="M3478 3503 c7 -3 16 -2 19 1 4 3 -2 6 -13 5 -11 0 -14 -3 -6 -6z"/>
<path d="M3438 3493 c7 -3 16 -2 19 1 4 3 -2 6 -13 5 -11 0 -14 -3 -6 -6z"/>
<path d="M822 3445 c0 -16 2 -22 5 -12 2 9 2 23 0 30 -3 6 -5 -1 -5 -18z"/>
<path d="M1080 3466 c0 -2 8 -10 18 -17 15 -13 16 -12 3 4 -13 16 -21 21 -21
13z"/>
<path d="M3275 3440 c-13 -5 -14 -9 -5 -9 8 0 24 4 35 9 13 5 14 9 5 9 -8 0
-24 -4 -35 -9z"/>
<path d="M4068 3413 c7 -3 16 -2 19 1 4 3 -2 6 -13 5 -11 0 -14 -3 -6 -6z"/>
<path d="M2311 3394 c0 -11 3 -14 6 -6 3 7 2 16 -1 19 -3 4 -6 -2 -5 -13z"/>
<path d="M832 3375 c0 -16 2 -22 5 -12 2 9 2 23 0 30 -3 6 -5 -1 -5 -18z"/>
<path d="M1200 3366 c0 -3 9 -10 20 -16 11 -6 20 -8 20 -6 0 3 -9 10 -20 16
-11 6 -20 8 -20 6z"/>
<path d="M3078 3363 c7 -3 16 -2 19 1 4 3 -2 6 -13 5 -11 0 -14 -3 -6 -6z"/>
<path d="M2321 3344 c0 -11 3 -14 6 -6 3 7 2 16 -1 19 -3 4 -6 -2 -5 -13z"/>
<path d="M842 3300 c0 -14 2 -19 5 -12 2 6 2 18 0 25 -3 6 -5 1 -5 -13z"/>
<path d="M1285 3300 c10 -11 20 -20 23 -20 3 0 -3 9 -13 20 -10 11 -20 20 -23
20 -3 0 3 -9 13 -20z"/>
<path d="M2938 3313 c7 -3 16 -2 19 1 4 3 -2 6 -13 5 -11 0 -14 -3 -6 -6z"/>
<path d="M1335 3260 c10 -11 20 -20 23 -20 3 0 -3 9 -13 20 -10 11 -20 20 -23
20 -3 0 3 -9 13 -20z"/>
<path d="M2798 3263 c7 -3 16 -2 19 1 4 3 -2 6 -13 5 -11 0 -14 -3 -6 -6z"/>
<path d="M2758 3253 c7 -3 16 -2 19 1 4 3 -2 6 -13 5 -11 0 -14 -3 -6 -6z"/>
<path d="M1370 3236 c0 -2 8 -10 18 -17 15 -13 16 -12 3 4 -13 16 -21 21 -21
13z"/>
<path d="M2618 3203 c7 -3 16 -2 19 1 4 3 -2 6 -13 5 -11 0 -14 -3 -6 -6z"/>
<path d="M872 3150 c0 -14 2 -19 5 -12 2 6 2 18 0 25 -3 6 -5 1 -5 -13z"/>
<path d="M1616 3134 c9 -37 10 -39 17 -15 3 11 -2 26 -10 32 -12 11 -13 8 -7
-17z"/>
<path d="M1952 3130 c0 -14 2 -19 5 -12 2 6 2 18 0 25 -3 6 -5 1 -5 -13z"/>
<path d="M2468 3143 c7 -3 16 -2 19 1 4 3 -2 6 -13 5 -11 0 -14 -3 -6 -6z"/>
<path d="M882 3080 c0 -19 2 -27 5 -17 2 9 2 25 0 35 -3 9 -5 1 -5 -18z"/>
<path d="M1423 3075 c0 -22 2 -30 4 -17 2 12 2 30 0 40 -3 9 -5 -1 -4 -23z"/>
<path d="M1633 3045 c0 -22 2 -30 4 -17 2 12 2 30 0 40 -3 9 -5 -1 -4 -23z"/>
<path d="M1727 3059 c7 -7 15 -10 18 -7 3 3 -2 9 -12 12 -14 6 -15 5 -6 -5z"/>
<path d="M892 3005 c0 -16 2 -22 5 -12 2 9 2 23 0 30 -3 6 -5 -1 -5 -18z"/>
<path d="M1780 3021 c0 -5 7 -12 16 -15 14 -5 15 -4 4 9 -14 17 -20 19 -20 6z"/>
<path d="M1433 2970 c0 -25 2 -35 4 -22 2 12 2 32 0 45 -2 12 -4 2 -4 -23z"/>
<path d="M1643 2955 c0 -22 2 -30 4 -17 2 12 2 30 0 40 -3 9 -5 -1 -4 -23z"/>
<path d="M1901 2914 c0 -11 3 -14 6 -6 3 7 2 16 -1 19 -3 4 -6 -2 -5 -13z"/>
<path d="M2431 2894 c0 -11 3 -14 6 -6 3 7 2 16 -1 19 -3 4 -6 -2 -5 -13z"/>
<path d="M1442 2870 c0 -19 2 -27 5 -17 2 9 2 25 0 35 -3 9 -5 1 -5 -18z"/>
<path d="M1650 2891 c0 -6 15 -18 33 -26 27 -13 29 -14 12 -1 -11 9 -26 20
-32 26 -9 7 -13 7 -13 1z"/>
<path d="M1912 2850 c0 -14 2 -19 5 -12 2 6 2 18 0 25 -3 6 -5 1 -5 -13z"/>
<path d="M6188 2863 c7 -3 16 -2 19 1 4 3 -2 6 -13 5 -11 0 -14 -3 -6 -6z"/>
<path d="M2441 2844 c0 -11 3 -14 6 -6 3 7 2 16 -1 19 -3 4 -6 -2 -5 -13z"/>
<path d="M3812 2840 c0 -14 2 -19 5 -12 2 6 2 18 0 25 -3 6 -5 1 -5 -13z"/>
<path d="M932 2780 c0 -14 2 -19 5 -12 2 6 2 18 0 25 -3 6 -5 1 -5 -13z"/>
<path d="M3823 2735 c0 -22 2 -30 4 -17 2 12 2 30 0 40 -3 9 -5 -1 -4 -23z"/>
<path d="M1877 2739 c7 -7 15 -10 18 -7 3 3 -2 9 -12 12 -14 6 -15 5 -6 -5z"/>
<path d="M1941 2714 c0 -11 3 -14 6 -6 3 7 2 16 -1 19 -3 4 -6 -2 -5 -13z"/>
<path d="M3408 2683 c7 -3 16 -2 19 1 4 3 -2 6 -13 5 -11 0 -14 -3 -6 -6z"/>
<path d="M3368 2673 c7 -3 16 -2 19 1 4 3 -2 6 -13 5 -11 0 -14 -3 -6 -6z"/>
<path d="M3265 2640 c-13 -5 -14 -9 -5 -9 8 0 24 4 35 9 13 5 14 9 5 9 -8 0
-24 -4 -35 -9z"/>
<path d="M3832 2620 c0 -19 2 -27 5 -17 2 9 2 25 0 35 -3 9 -5 1 -5 -18z"/>
<path d="M1690 2625 c0 -7 61 -37 66 -33 2 3 -12 12 -31 21 -19 9 -35 15 -35
12z"/>
<path d="M2491 2594 c0 -11 3 -14 6 -6 3 7 2 16 -1 19 -3 4 -6 -2 -5 -13z"/>
<path d="M1692 2580 c0 -14 2 -19 5 -12 2 6 2 18 0 25 -3 6 -5 1 -5 -13z"/>
<path d="M1820 2550 c8 -5 20 -10 25 -10 6 0 3 5 -5 10 -8 5 -19 10 -25 10 -5
0 -3 -5 5 -10z"/>
<path d="M2501 2544 c0 -11 3 -14 6 -6 3 7 2 16 -1 19 -3 4 -6 -2 -5 -13z"/>
<path d="M1702 2500 c0 -14 2 -19 5 -12 2 6 2 18 0 25 -3 6 -5 1 -5 -13z"/>
<path d="M2878 2503 c7 -3 16 -2 19 1 4 3 -2 6 -13 5 -11 0 -14 -3 -6 -6z"/>
<path d="M992 2475 c0 -16 2 -22 5 -12 2 9 2 23 0 30 -3 6 -5 -1 -5 -18z"/>
<path d="M2768 2463 c7 -3 16 -2 19 1 4 3 -2 6 -13 5 -11 0 -14 -3 -6 -6z"/>
<path d="M1502 2430 c0 -19 2 -27 5 -17 2 9 2 25 0 35 -3 9 -5 1 -5 -18z"/>
<path d="M2728 2453 c7 -3 16 -2 19 1 4 3 -2 6 -13 5 -11 0 -14 -3 -6 -6z"/>
<path d="M1991 2424 c0 -11 3 -14 6 -6 3 7 2 16 -1 19 -3 4 -6 -2 -5 -13z"/>
<path d="M1002 2419 c4 -12 48 -46 48 -37 0 2 -12 15 -26 27 -15 13 -24 17
-22 10z"/>
<path d="M5935 2410 c3 -5 8 -10 11 -10 2 0 4 5 4 10 0 6 -5 10 -11 10 -5 0
-7 -4 -4 -10z"/>
<path d="M2540 2389 c0 -5 5 -7 10 -4 6 3 10 8 10 11 0 2 -4 4 -10 4 -5 0 -10
-5 -10 -11z"/>
<path d="M5848 2383 c7 -3 16 -2 19 1 4 3 -2 6 -13 5 -11 0 -14 -3 -6 -6z"/>
<path d="M2002 2355 c0 -16 2 -22 5 -12 2 9 2 23 0 30 -3 6 -5 -1 -5 -18z"/>
<path d="M5798 2373 c7 -3 16 -2 19 1 4 3 -2 6 -13 5 -11 0 -14 -3 -6 -6z"/>
<path d="M1080 2346 c0 -2 7 -7 16 -10 8 -3 12 -2 9 4 -6 10 -25 14 -25 6z"/>
<path d="M1512 2325 c0 -16 2 -22 5 -12 2 9 2 23 0 30 -3 6 -5 -1 -5 -18z"/>
<path d="M1790 2340 c8 -5 20 -10 25 -10 6 0 3 5 -5 10 -8 5 -19 10 -25 10 -5
0 -3 -5 5 -10z"/>
<path d="M2012 2290 c0 -14 2 -19 5 -12 2 6 2 18 0 25 -3 6 -5 1 -5 -13z"/>
<path d="M1900 2280 c8 -5 20 -10 25 -10 6 0 3 5 -5 10 -8 5 -19 10 -25 10 -5
0 -3 -5 5 -10z"/>
<path d="M3872 2260 c0 -19 2 -27 5 -17 2 9 2 25 0 35 -3 9 -5 1 -5 -18z"/>
<path d="M5378 2253 c6 -2 18 -2 25 0 6 3 1 5 -13 5 -14 0 -19 -2 -12 -5z"/>
<path d="M5338 2243 c7 -3 16 -2 19 1 4 3 -2 6 -13 5 -11 0 -14 -3 -6 -6z"/>
<path d="M2005 2222 c17 -11 32 -18 34 -15 8 6 -13 20 -39 28 -23 6 -22 5 5
-13z"/>
<path d="M5198 2203 c7 -3 16 -2 19 1 4 3 -2 6 -13 5 -11 0 -14 -3 -6 -6z"/>
<path d="M5148 2193 c6 -2 18 -2 25 0 6 3 1 5 -13 5 -14 0 -19 -2 -12 -5z"/>
<path d="M3882 2150 c0 -19 2 -27 5 -17 2 9 2 25 0 35 -3 9 -5 1 -5 -18z"/>
<path d="M4968 2143 c7 -3 16 -2 19 1 4 3 -2 6 -13 5 -11 0 -14 -3 -6 -6z"/>
<path d="M1542 2115 c0 -16 2 -22 5 -12 2 9 2 23 0 30 -3 6 -5 -1 -5 -18z"/>
<path d="M1390 2116 c0 -3 9 -10 20 -16 11 -6 20 -8 20 -6 0 3 -9 10 -20 16
-11 6 -20 8 -20 6z"/>
<path d="M4738 2073 c7 -3 16 -2 19 1 4 3 -2 6 -13 5 -11 0 -14 -3 -6 -6z"/>
<path d="M1552 2020 c0 -19 2 -27 5 -17 2 9 2 25 0 35 -3 9 -5 1 -5 -18z"/>
<path d="M4598 2033 c7 -3 16 -2 19 1 4 3 -2 6 -13 5 -11 0 -14 -3 -6 -6z"/>
<path d="M1960 2020 c8 -5 20 -10 25 -10 6 0 3 5 -5 10 -8 5 -19 10 -25 10 -5
0 -3 -5 5 -10z"/>
<path d="M4548 2023 c7 -3 16 -2 19 1 4 3 -2 6 -13 5 -11 0 -14 -3 -6 -6z"/>
<path d="M4508 2013 c7 -3 16 -2 19 1 4 3 -2 6 -13 5 -11 0 -14 -3 -6 -6z"/>
<path d="M4418 1983 c7 -3 16 -2 19 1 4 3 -2 6 -13 5 -11 0 -14 -3 -6 -6z"/>
<path d="M2050 1976 c0 -2 7 -7 16 -10 8 -3 12 -2 9 4 -6 10 -25 14 -25 6z"/>
<path d="M4368 1973 c7 -3 16 -2 19 1 4 3 -2 6 -13 5 -11 0 -14 -3 -6 -6z"/>
<path d="M2081 1924 c0 -11 3 -14 6 -6 3 7 2 16 -1 19 -3 4 -6 -2 -5 -13z"/>
<path d="M1052 1900 c0 -14 2 -19 5 -12 2 6 2 18 0 25 -3 6 -5 1 -5 -13z"/>
<path d="M1802 1865 c0 -16 2 -22 5 -12 2 9 2 23 0 30 -3 6 -5 -1 -5 -18z"/>
<path d="M1062 1830 c0 -19 2 -27 5 -17 2 9 2 25 0 35 -3 9 -5 1 -5 -18z"/>
<path d="M1210 1850 c8 -5 20 -10 25 -10 6 0 3 5 -5 10 -8 5 -19 10 -25 10 -5
0 -3 -5 5 -10z"/>
<path d="M3948 1853 c7 -3 16 -2 19 1 4 3 -2 6 -13 5 -11 0 -14 -3 -6 -6z"/>
<path d="M3908 1843 c7 -3 16 -2 19 1 4 3 -2 6 -13 5 -11 0 -14 -3 -6 -6z"/>
<path d="M1290 1810 c8 -5 20 -10 25 -10 6 0 3 5 -5 10 -8 5 -19 10 -25 10 -5
0 -3 -5 5 -10z"/>
<path d="M3768 1803 c7 -3 16 -2 19 1 4 3 -2 6 -13 5 -11 0 -14 -3 -6 -6z"/>
<path d="M1340 1790 c8 -5 20 -10 25 -10 6 0 3 5 -5 10 -8 5 -19 10 -25 10 -5
0 -3 -5 5 -10z"/>
<path d="M3718 1793 c6 -2 18 -2 25 0 6 3 1 5 -13 5 -14 0 -19 -2 -12 -5z"/>
<path d="M3678 1783 c7 -3 16 -2 19 1 4 3 -2 6 -13 5 -11 0 -14 -3 -6 -6z"/>
<path d="M1072 1750 c0 -14 2 -19 5 -12 2 6 2 18 0 25 -3 6 -5 1 -5 -13z"/>
<path d="M3538 1743 c7 -3 16 -2 19 1 4 3 -2 6 -13 5 -11 0 -14 -3 -6 -6z"/>
<path d="M2122 1710 c0 -14 2 -19 5 -12 2 6 2 18 0 25 -3 6 -5 1 -5 -13z"/>
<path d="M1970 1716 c0 -2 7 -7 16 -10 8 -3 12 -2 9 4 -6 10 -25 14 -25 6z"/>
<path d="M3308 1673 c7 -3 16 -2 19 1 4 3 -2 6 -13 5 -11 0 -14 -3 -6 -6z"/>
<path d="M2132 1645 c0 -16 2 -22 5 -12 2 9 2 23 0 30 -3 6 -5 -1 -5 -18z"/>
<path d="M3258 1663 c7 -3 16 -2 19 1 4 3 -2 6 -13 5 -11 0 -14 -3 -6 -6z"/>
<path d="M1660 1630 c8 -5 20 -10 25 -10 6 0 3 5 -5 10 -8 5 -19 10 -25 10 -5
0 -3 -5 5 -10z"/>
<path d="M3168 1633 c7 -3 16 -2 19 1 4 3 -2 6 -13 5 -11 0 -14 -3 -6 -6z"/>
<path d="M3118 1623 c6 -2 18 -2 25 0 6 3 1 5 -13 5 -14 0 -19 -2 -12 -5z"/>
<path d="M3078 1613 c7 -3 16 -2 19 1 4 3 -2 6 -13 5 -11 0 -14 -3 -6 -6z"/>
<path d="M1102 1590 c0 -14 2 -19 5 -12 2 6 2 18 0 25 -3 6 -5 1 -5 -13z"/>
<path d="M2938 1573 c7 -3 16 -2 19 1 4 3 -2 6 -13 5 -11 0 -14 -3 -6 -6z"/>
<path d="M2888 1563 c7 -3 16 -2 19 1 4 3 -2 6 -13 5 -11 0 -14 -3 -6 -6z"/>
<path d="M1112 1515 c0 -16 2 -22 5 -12 2 9 2 23 0 30 -3 6 -5 -1 -5 -18z"/>
<path d="M2841 1484 c0 -11 3 -14 6 -6 3 7 2 16 -1 19 -3 4 -6 -2 -5 -13z"/>
<path d="M2020 1450 c8 -5 20 -10 25 -10 6 0 3 5 -5 10 -8 5 -19 10 -25 10 -5
0 -3 -5 5 -10z"/>
<path d="M2150 1390 c8 -5 20 -10 25 -10 6 0 3 5 -5 10 -8 5 -19 10 -25 10 -5
0 -3 -5 5 -10z"/>
<path d="M5203 1253 c9 -2 23 -2 30 0 6 3 -1 5 -18 5 -16 0 -22 -2 -12 -5z"/>
<path d="M2755 1234 c4 -10 16 -41 27 -69 29 -75 38 -82 116 -84 93 -2 471
-20 689 -31 100 -6 188 -7 196 -4 8 3 144 -2 303 -10 373 -20 813 -39 842 -37
8 1 12 22 12 72 0 64 -2 70 -17 64 -10 -4 -193 -12 -408 -18 -382 -10 -826 0
-1000 23 -254 34 -371 51 -438 65 -43 8 -115 19 -160 25 -45 5 -102 13 -126
16 -41 7 -44 6 -36 -12z"/>
<path d="M5148 1243 c6 -2 18 -2 25 0 6 3 1 5 -13 5 -14 0 -19 -2 -12 -5z"/>
<path d="M5098 1233 c6 -2 18 -2 25 0 6 3 1 5 -13 5 -14 0 -19 -2 -12 -5z"/>
<path d="M4938 1193 c7 -3 16 -2 19 1 4 3 -2 6 -13 5 -11 0 -14 -3 -6 -6z"/>
<path d="M4878 1173 c7 -3 16 -2 19 1 4 3 -2 6 -13 5 -11 0 -14 -3 -6 -6z"/>
<path d="M3668 1023 c7 -3 16 -2 19 1 4 3 -2 6 -13 5 -11 0 -14 -3 -6 -6z"/>
<path d="M3628 1013 c7 -3 16 -2 19 1 4 3 -2 6 -13 5 -11 0 -14 -3 -6 -6z"/>
<path d="M3398 943 c7 -3 16 -2 19 1 4 3 -2 6 -13 5 -11 0 -14 -3 -6 -6z"/>
<path d="M3258 903 c7 -3 16 -2 19 1 4 3 -2 6 -13 5 -11 0 -14 -3 -6 -6z"/>
<path d="M3218 893 c7 -3 16 -2 19 1 4 3 -2 6 -13 5 -11 0 -14 -3 -6 -6z"/>
<path d="M5233 873 c9 -2 23 -2 30 0 6 3 -1 5 -18 5 -16 0 -22 -2 -12 -5z"/>
<path d="M5168 863 c6 -2 18 -2 25 0 6 3 1 5 -13 5 -14 0 -19 -2 -12 -5z"/>
<path d="M3078 853 c7 -3 16 -2 19 1 4 3 -2 6 -13 5 -11 0 -14 -3 -6 -6z"/>
<path d="M5108 853 c7 -3 16 -2 19 1 4 3 -2 6 -13 5 -11 0 -14 -3 -6 -6z"/>
<path d="M3038 843 c7 -3 16 -2 19 1 4 3 -2 6 -13 5 -11 0 -14 -3 -6 -6z"/>
<path d="M5038 833 c7 -3 16 -2 19 1 4 3 -2 6 -13 5 -11 0 -14 -3 -6 -6z"/>
<path d="M4973 823 c9 -2 23 -2 30 0 6 3 -1 5 -18 5 -16 0 -22 -2 -12 -5z"/>
<path d="M4903 813 c9 -2 23 -2 30 0 6 3 -1 5 -18 5 -16 0 -22 -2 -12 -5z"/>
<path d="M4833 803 c9 -2 23 -2 30 0 6 3 -1 5 -18 5 -16 0 -22 -2 -12 -5z"/>
<path d="M4698 773 c6 -2 18 -2 25 0 6 3 1 5 -13 5 -14 0 -19 -2 -12 -5z"/>
<path d="M4633 763 c9 -2 23 -2 30 0 6 3 -1 5 -18 5 -16 0 -22 -2 -12 -5z"/>
<path d="M6635 1349 c-80 -10 -592 -45 -800 -55 -77 -3 -148 -10 -157 -16 -22
-11 -23 -51 -3 -68 17 -14 51 -11 246 23 235 41 368 50 642 44 243 -5 247 -5
262 16 12 18 13 24 1 42 -16 23 -77 28 -191 14z"/>
<path d="M6042 498 c3 -29 7 -33 34 -36 36 -4 59 18 49 48 -5 16 -15 20 -46
20 -39 0 -40 -1 -37 -32z"/>
</g>
</svg>
