<svg xmlns="http://www.w3.org/2000/svg" version="1.0" fill="#fa0606" width="1000.000000pt" height="1000.000000pt" viewBox="0 0 1000.000000 1000.000000" preserveAspectRatio="xMidYMid meet">

<g transform="translate(0.000000,1000.000000) scale(0.100000,-0.100000)" fill="#ffffff" stroke="none">
<path d="M4909 9225 c-467 -79 -936 -332 -1346 -728 -190 -183 -338 -363 -501 -609 -130 -195 -128 -167 -20 -234 51 -31 94 -58 96 -59 1 -1 -13 -44 -32 -96 l-34 -94 -107 -3 -108 -3 6 -142 c10 -224 42 -384 116 -574 l32 -82 -24 -78 c-61 -194 -117 -442 -147 -653 -28 -196 -30 -658 -4 -837 6 -41 5 -42 -53 -87 -138 -109 -326 -220 -485 -287 -43 -17 -78 -35 -78 -39 0 -12 134 -92 256 -153 130 -65 270 -116 407 -147 l99 -22 -7 -47 c-3 -25 -8 -54 -11 -63 -6 -21 -17 -24 -289 -83 -729 -160 -1005 -222 -1011 -228 -3 -2 22 -46 55 -96 93 -142 251 -467 251 -516 0 -6 -35 -19 -77 -29 -43 -10 -85 -22 -94 -27 -10 -5 -21 -40 -33 -106 -9 -54 -32 -186 -51 -293 -19 -107 -50 -287 -70 -400 -19 -113 -52 -296 -72 -406 l-36 -201 127 -193 c70 -106 124 -195 121 -198 -12 -12 -117 33 -156 66 -22 19 -53 60 -68 91 -35 67 -27 93 -79 -249 -29 -185 -37 -257 -28 -262 32 -21 269 -90 387 -113 239 -47 431 -44 702 10 214 44 345 92 482 180 l50 31 325 23 c179 12 370 25 425 29 99 7 100 7 96 32 -1 14 -28 133 -58 265 -102 449 -140 642 -120 614 96 -138 306 -368 411 -449 25 -19 45 -39 46 -45 0 -5 -31 -62 -69 -125 -38 -63 -68 -116 -66 -118 1 -2 70 6 151 17 221 31 382 41 633 41 377 0 617 -32 1079 -142 117 -28 214 -49 215 -47 2 2 23 58 46 124 24 66 47 127 53 135 5 9 6 -46 1 -150 -4 -91 -7 -185 -8 -210 l0 -45 45 -6 c25 -4 299 -44 610 -89 311 -44 623 -90 694 -101 71 -11 131 -18 133 -16 2 3 -16 78 -41 168 -24 90 -83 308 -131 484 -47 176 -104 383 -125 460 -59 214 -90 332 -90 342 0 6 28 30 62 54 178 124 454 373 599 540 l49 57 -255 157 c-140 86 -256 159 -259 163 -2 4 30 111 72 238 l75 231 121 12 c263 25 522 94 710 188 109 54 226 123 226 132 0 3 -43 26 -96 51 -208 95 -423 272 -512 422 l-33 56 80 161 c45 89 85 161 89 161 19 0 143 113 186 169 151 196 150 431 -2 594 l-49 52 8 70 c14 119 10 445 -6 567 -35 262 -104 471 -208 631 -52 80 -178 219 -256 281 -30 24 -37 40 -67 154 -39 150 -99 312 -178 476 -31 65 -56 120 -56 122 0 2 66 56 146 120 80 64 142 120 137 124 -17 17 -283 123 -451 180 -380 130 -695 185 -1172 204 -68 3 -114 9 -113 15 1 5 25 56 52 113 36 76 46 106 37 114 -16 17 -213 96 -356 144 -138 46 -385 104 -512 120 -111 14 -395 11 -489 -5z m547 -139 c128 -22 329 -77 480 -132 131 -47 224 -89 224 -101 0 -3 -25 -53 -56 -111 -30 -57 -54 -106 -51 -108 2 -2 89 -9 193 -14 393 -20 618 -56 934 -146 230 -66 519 -177 528 -202 2 -6 -39 -46 -90 -89 -51 -43 -107 -91 -125 -108 l-33 -30 61 -90 c113 -168 235 -453 273 -641 20 -100 56 -365 56 -415 0 -21 -4 -40 -9 -43 -5 -4 -30 33 -56 81 -97 179 -231 371 -358 510 -29 32 -65 76 -79 98 -32 47 -119 133 -202 200 -218 174 -553 327 -867 396 -57 13 -109 27 -115 31 -6 5 -26 82 -44 173 -18 91 -36 165 -39 165 -4 0 -31 -71 -60 -157 -30 -87 -59 -164 -64 -170 -7 -10 -79 -13 -296 -13 -312 0 -467 -10 -612 -40 -134 -27 -301 -68 -392 -96 -96 -30 -105 -30 -117 -1 -129 315 -214 514 -221 522 -12 13 -15 -601 -3 -651 5 -19 -11 -31 -113 -92 -164 -97 -349 -220 -470 -313 -56 -44 -104 -79 -107 -79 -7 0 -47 62 -162 249 -80 130 -89 141 -92 113 -3 -31 54 -469 64 -497 8 -21 -154 -337 -244 -475 -85 -131 -79 -131 -133 -2 -61 147 -106 403 -85 486 6 25 9 26 84 27 42 0 85 4 96 8 13 5 32 45 62 132 24 68 44 125 44 126 0 1 -36 28 -80 59 -44 32 -80 62 -80 67 0 16 111 199 183 301 189 267 450 522 723 705 323 217 639 341 984 385 70 9 377 -3 466 -18z m-1573 -2482 l77 -116 -50 -55 c-56 -61 -118 -163 -145 -236 -17 -45 -17 -49 -2 -65 23 -22 36 -7 71 83 33 82 87 179 123 217 l26 27 70 -92 c181 -236 492 -577 526 -577 8 0 83 22 165 49 83 28 171 56 196 64 l45 14 5 158 c3 108 9 160 17 162 6 2 28 -26 49 -64 124 -226 197 -353 202 -353 4 0 31 9 60 20 69 26 73 26 61 -9 -6 -16 -9 -51 -7 -77 l3 -49 90 3 c50 1 151 8 225 14 212 17 636 14 845 -6 99 -10 184 -21 188 -25 22 -22 -155 -915 -210 -1058 -7 -17 50 -17 260 -2 86 7 160 9 163 6 3 -3 -2 -29 -11 -57 -17 -50 -19 -52 -188 -164 -370 -245 -710 -408 -1066 -512 -85 -25 -158 -41 -162 -37 -4 4 -56 95 -115 201 -59 106 -111 189 -115 185 -4 -4 -19 -91 -33 -193 -14 -102 -28 -200 -31 -217 l-6 -33 -147 0 c-146 0 -313 15 -342 30 -8 5 -42 63 -75 129 -32 67 -62 121 -65 121 -4 0 -19 -45 -35 -100 -16 -60 -33 -100 -40 -100 -31 0 -231 77 -352 135 -260 124 -456 258 -624 425 -135 134 -186 220 -196 328 -6 68 20 169 60 236 61 100 569 320 955 415 67 16 135 39 150 50 38 27 66 100 57 149 -9 52 -34 101 -59 117 -43 28 -365 49 -758 50 -203 0 -368 1 -368 2 0 2 21 72 46 156 76 252 174 458 355 745 7 12 18 22 24 22 5 -1 45 -53 88 -116z m2742 -602 l50 -7 -2 -55 c-1 -30 -10 -80 -20 -110 l-18 -55 -120 3 c-66 1 -129 4 -140 7 -11 2 -32 26 -47 52 -15 26 -50 76 -77 111 -28 34 -51 65 -51 69 0 7 352 -5 425 -15z m-841 -92 c26 -32 40 -80 34 -121 -3 -21 -12 -25 -93 -41 -126 -24 -125 -24 -125 15 0 92 59 177 123 177 27 0 41 -7 61 -30z m2517 -186 c106 -34 169 -130 169 -259 0 -195 -179 -414 -400 -491 -74 -26 -254 -53 -266 -41 -4 4 9 42 29 84 82 178 151 384 196 591 l28 127 39 6 c53 9 149 1 205 -17z m-4411 -32 c0 -5 -12 -19 -26 -33 -74 -69 -126 -206 -117 -307 l5 -59 -63 -26 -64 -26 -33 37 c-71 80 -142 265 -126 328 7 28 4 27 184 58 212 37 240 40 240 28z m470 -74 c19 -32 26 -91 14 -134 -5 -17 -22 -25 -102 -43 -53 -11 -100 -21 -104 -21 -29 0 25 133 76 186 54 56 87 59 116 12z m-930 -402 c18 -46 20 -63 11 -82 -12 -28 -37 -32 -45 -6 -8 25 -36 261 -36 297 1 18 10 -6 24 -60 13 -49 34 -116 46 -149z m77 -1152 c-2 -47 -9 -90 -14 -95 -5 -5 -47 -10 -93 -12 l-84 -2 -9 40 c-6 23 -6 40 -1 42 5 2 50 28 99 58 50 29 94 54 99 54 5 1 6 -37 3 -85z m-333 -155 c19 -79 55 -236 81 -349 26 -113 64 -279 85 -370 21 -91 57 -248 80 -350 23 -102 59 -259 80 -350 21 -91 57 -248 80 -350 23 -102 55 -239 70 -305 87 -373 112 -497 104 -505 -5 -5 -223 -25 -484 -44 -261 -20 -510 -41 -553 -47 -65 -10 -81 -9 -91 2 -7 8 -30 104 -50 214 -21 110 -57 277 -81 370 -23 94 -39 173 -36 177 4 4 56 15 116 24 61 9 113 19 117 23 3 3 0 26 -9 49 -8 24 -12 50 -9 57 2 7 49 23 103 36 54 12 101 26 104 31 5 8 -6 56 -58 253 -6 22 -25 90 -43 150 -17 61 -45 162 -61 225 -17 63 -35 130 -41 148 l-10 33 -63 -6 -63 -7 -30 98 c-17 55 -39 128 -48 163 -10 35 -25 66 -33 69 -8 3 -69 -5 -135 -17 -67 -13 -126 -24 -133 -25 -7 -1 -16 -5 -19 -9 -4 -4 -19 -7 -33 -7 -25 0 -35 19 -150 255 -68 140 -122 257 -120 259 2 1 175 38 384 80 209 42 454 92 545 111 289 60 355 72 363 65 4 -4 23 -72 41 -151z m2257 -55 c38 -72 69 -135 69 -140 0 -5 -26 -24 -56 -43 l-56 -33 -41 18 c-23 10 -47 22 -53 28 -8 8 -5 58 11 181 12 94 23 172 24 175 1 3 8 -8 17 -25 8 -16 47 -89 85 -161z m2171 151 c5 -5 -212 -639 -222 -648 -3 -3 -93 52 -200 122 -140 92 -197 124 -203 115 -4 -7 -76 -185 -161 -396 -320 -796 -386 -960 -397 -980 -11 -20 -14 -17 -40 41 -79 173 -182 532 -213 736 -8 55 -22 138 -30 185 -16 91 -46 369 -46 430 l0 37 119 56 c334 158 611 238 976 281 184 22 405 33 417 21z m-2951 -223 c63 -140 63 -138 -10 -162 -33 -11 -49 -11 -82 -1 -47 14 -47 -3 -3 189 14 62 29 110 32 107 3 -3 32 -63 63 -133z m-1003 46 c-30 -187 -50 -457 -55 -751 -3 -175 -7 -316 -9 -314 -2 2 -26 107 -54 233 -64 299 -156 712 -176 792 -8 35 -14 66 -12 68 6 5 182 21 254 23 l61 1 -9 -52z m152 -225 c0 -5 -28 -44 -63 -88 l-62 -80 -3 50 c-4 76 7 97 59 111 54 15 69 16 69 7z m220 -192 c0 -5 -9 -13 -21 -16 -48 -15 -201 -129 -267 -200 l-73 -76 3 143 3 143 150 5 c83 3 162 7 178 8 15 1 27 -2 27 -7z m498 -27 c56 -39 0 -150 -83 -161 -31 -4 -46 0 -67 17 -42 32 -38 73 11 121 32 32 46 39 78 39 21 0 49 -7 61 -16z m-2402 -211 c14 -64 33 -135 36 -138 2 -2 46 2 98 10 184 26 190 26 201 -2 15 -41 11 -50 -28 -57 -21 -4 -126 -25 -233 -48 l-195 -41 -65 -67 c-58 -60 -103 -90 -116 -77 -8 8 49 352 61 365 10 11 204 81 227 82 4 0 10 -12 14 -27z m218 -374 l27 -91 42 6 c67 10 229 26 263 26 27 0 32 -4 37 -29 3 -16 9 -40 12 -53 l6 -25 -178 -7 c-167 -6 -504 -39 -524 -52 -5 -3 -34 -43 -64 -89 -55 -83 -133 -163 -188 -191 -16 -9 -30 -14 -32 -12 -2 2 8 79 23 172 l26 169 56 35 c30 19 80 59 111 89 52 50 64 57 190 98 74 25 141 45 150 45 11 0 23 -26 43 -91z m2040 -50 c38 -30 58 -75 58 -132 0 -42 -4 -54 -30 -80 -29 -28 -34 -30 -68 -21 -55 13 -96 69 -102 137 -4 46 -1 57 23 85 32 39 78 43 119 11z m-1919 -255 l12 -51 -156 -6 c-86 -3 -191 -11 -234 -17 -43 -7 -80 -10 -83 -8 -8 9 37 77 54 82 20 6 223 43 267 49 17 3 52 4 79 3 l50 -1 11 -51z m329 -121 c2 -10 7 -27 10 -39 6 -18 -3 -25 -64 -53 -39 -17 -74 -31 -79 -31 -8 0 -41 103 -41 128 0 8 26 12 84 12 72 0 85 -3 90 -17z m-500 -97 l19 -79 138 7 138 7 10 -38 c6 -21 11 -43 11 -50 0 -13 2 -13 -210 -43 -172 -25 -460 -77 -467 -84 -3 -2 14 -43 36 -91 l41 -87 52 47 c61 55 125 89 205 110 98 26 94 29 131 -93 69 -227 133 -535 113 -546 -18 -11 -212 -17 -341 -11 l-149 7 -52 87 c-29 47 -106 167 -171 267 -76 116 -118 190 -118 208 0 25 25 197 35 242 3 12 20 31 38 42 19 10 64 45 101 76 73 62 109 74 281 95 141 16 136 18 159 -73z m5040 -488 c19 -69 54 -193 111 -403 26 -93 58 -208 71 -255 31 -111 31 -112 -8 -106 -18 3 -213 31 -433 61 -482 67 -668 94 -673 100 -2 2 -1 128 3 280 6 207 11 280 21 290 23 23 289 65 489 78 28 2 130 4 227 5 l177 2 15 -52z" fill="#ffffff"/>
<path d="M4403 8807 c-61 -29 -114 -55 -118 -58 -3 -4 56 -63 132 -131 227 -205 325 -289 330 -285 2 3 -18 60 -45 128 -27 68 -73 186 -102 262 -38 96 -58 137 -69 137 -9 -1 -66 -24 -128 -53z" fill="#ffffff"/>
<path d="M5775 8764 c51 -122 77 -237 91 -412 3 -46 9 -80 13 -75 12 13 141 418 141 441 0 17 -12 22 -92 36 -177 32 -162 31 -153 10z" fill="#ffffff"/>
<path d="M7262 8078 c-70 -239 -74 -233 72 -88 69 69 125 129 123 135 -3 9 -136 94 -148 95 -3 0 -25 -64 -47 -142z" fill="#ffffff"/>
<path d="M6530 5625 c-18 -21 -5 -47 22 -43 26 3 37 36 16 49 -18 12 -24 11 -38 -6z" fill="#ffffff"/>
<path d="M4387 5173 c-12 -12 -7 -31 10 -37 19 -8 48 17 39 33 -8 12 -39 15 -49 4z" fill="#ffffff"/>
<path d="M4350 4507 c-30 -8 -46 -18 -48 -31 -7 -35 13 -38 94 -10 136 45 206 23 342 -109 77 -76 83 -80 99 -64 16 16 15 20 -27 63 -128 133 -305 191 -460 151z" fill="#ffffff"/>
<path d="M6460 3534 c-142 -25 -166 -31 -158 -39 4 -4 316 -54 340 -55 3 0 9 19 13 43 3 23 9 50 11 60 7 23 -34 22 -206 -9z" fill="#ffffff"/>
<path d="M8280 240 c-44 -44 -12 -123 50 -123 22 0 39 7 52 22 39 50 9 121 -52 121 -17 0 -39 -9 -50 -20z m94 -12 c21 -29 20 -57 -1 -80 -20 -22 -61 -23 -85 -1 -38 34 -10 103 42 103 18 0 34 -8 44 -22z" fill="#ffffff"/>
<path d="M8300 215 c-27 -33 15 -87 51 -65 8 6 5 9 -12 12 -16 2 -25 11 -27 26 -3 21 6 27 37 23 7 -2 10 2 6 8 -9 16 -41 13 -55 -4z" fill="#ffffff"/>
<path d="M8453 252 c-30 -19 -36 -99 -9 -120 23 -19 52 -22 72 -6 18 15 18 15 -8 10 -33 -7 -58 15 -58 52 0 39 14 54 43 50 14 -1 27 2 29 7 4 12 -52 18 -69 7z" fill="#ffffff"/>
<path d="M8566 238 c-24 -33 -20 -75 9 -104 27 -27 55 -26 85 2 18 18 19 86 1 108 -20 24 -77 21 -95 -6z m82 -43 c3 -28 -1 -43 -14 -52 -28 -21 -54 1 -54 46 0 45 6 53 40 49 21 -3 25 -9 28 -43z" fill="#ffffff"/>
<path d="M8716 238 c-41 -59 6 -139 73 -121 16 4 21 13 21 39 0 31 -3 34 -27 33 -17 -1 -21 -3 -10 -6 18 -5 23 -38 7 -48 -16 -10 -49 14 -56 39 -9 38 12 68 46 64 16 -1 31 2 32 7 2 6 -13 11 -34 13 -28 2 -40 -2 -52 -20z" fill="#ffffff"/>
<path d="M8850 190 c0 -78 17 -96 22 -23 l3 48 25 -48 c36 -68 50 -62 50 23 0 40 -4 70 -10 70 -5 0 -10 -24 -10 -52 l0 -53 -30 53 c-17 28 -35 52 -40 52 -6 0 -10 -31 -10 -70z" fill="#ffffff"/>
<path d="M8999 244 c-18 -22 -17 -90 1 -108 30 -28 58 -29 85 -2 48 48 23 126 -39 126 -19 0 -40 -7 -47 -16z m81 -29 c11 -28 -1 -70 -22 -78 -27 -9 -48 13 -48 52 0 44 5 51 37 51 16 0 27 -8 33 -25z" fill="#ffffff"/>
<path d="M9147 253 c-19 -18 -5 -52 28 -72 19 -11 35 -24 35 -30 0 -15 -30 -22 -50 -11 -13 7 -21 7 -25 0 -10 -16 41 -31 70 -20 39 15 34 56 -10 77 -44 21 -48 47 -5 41 20 -3 30 0 30 9 0 14 -61 19 -73 6z" fill="#ffffff"/>
<path d="M9260 190 c0 -40 4 -70 10 -70 6 0 10 11 10 25 0 20 5 25 24 25 45 0 72 50 44 78 -7 7 -29 12 -50 12 l-38 0 0 -70z m75 40 c9 -15 -14 -40 -36 -40 -14 0 -19 7 -19 25 0 20 5 25 24 25 14 0 28 -5 31 -10z" fill="#ffffff"/>
<path d="M9390 190 c0 -40 4 -70 10 -70 6 0 10 14 10 30 0 27 3 30 30 30 27 0 30 -3 30 -30 0 -16 5 -30 10 -30 6 0 10 30 10 70 0 40 -4 70 -10 70 -5 0 -10 -13 -10 -30 0 -27 -3 -30 -30 -30 -27 0 -30 3 -30 30 0 17 -4 30 -10 30 -6 0 -10 -30 -10 -70z" fill="#ffffff"/>
<path d="M9530 190 l0 -70 45 0 c25 0 45 5 45 10 0 6 -13 10 -30 10 -23 0 -30 4 -30 20 0 15 7 20 25 20 14 0 25 5 25 10 0 6 -11 10 -25 10 -18 0 -25 5 -25 20 0 16 7 20 30 20 17 0 30 5 30 10 0 6 -20 10 -45 10 l-45 0 0 -70z" fill="#ffffff"/>
<path d="M9650 190 c0 -40 4 -70 10 -70 6 0 10 11 10 23 0 39 13 40 41 5 31 -37 49 -33 25 5 -15 22 -15 26 -1 37 36 30 10 70 -47 70 l-38 0 0 -70z m76 39 c9 -16 -21 -43 -40 -36 -9 4 -16 16 -16 27 0 15 7 20 24 20 14 0 28 -5 32 -11z" fill="#ffffff"/>
<path d="M9780 190 l0 -70 46 0 c27 0 43 4 39 10 -3 6 -19 10 -36 10 -22 0 -29 5 -29 20 0 15 7 20 24 20 14 0 28 5 31 10 4 6 -7 10 -24 10 -24 0 -31 4 -31 20 0 15 7 20 29 20 17 0 33 5 36 10 4 6 -12 10 -39 10 l-46 0 0 -70z" fill="#ffffff"/>
</g>
</svg>