<svg xmlns="http://www.w3.org/2000/svg" version="1.0" width="1000.000000pt" height="1000.000000pt" viewBox="0 0 1000.000000 1000.000000" preserveAspectRatio="xMidYMid meet">

<g transform="translate(0.000000,1000.000000) scale(0.100000,-0.100000)" fill="#ffffff" stroke="none">
<path d="M6405 9354 c-128 -74 -538 -275 -680 -334 -334 -137 -664 -238 -1069 -325 -171 -37 -652 -115 -706 -115 -30 0 13 -45 225 -240 211 -192 256 -240 226 -240 -41 0 -308 -58 -434 -94 -847 -243 -1552 -895 -1801 -1663 -58 -182 -106 -461 -106 -625 0 -38 -10 -69 -46 -141 -123 -243 -143 -435 -67 -640 53 -141 200 -329 363 -462 50 -41 83 -80 126 -148 32 -50 96 -143 143 -206 47 -63 90 -120 95 -126 6 -9 -2 -44 -23 -104 -35 -98 -33 -121 13 -121 11 0 27 -4 35 -9 9 -6 -18 -25 -91 -63 -188 -98 -308 -189 -424 -320 -255 -290 -315 -707 -147 -1043 142 -285 398 -453 721 -472 56 -3 101 -10 100 -14 -2 -5 -124 -114 -273 -242 -148 -128 -270 -239 -270 -247 0 -25 420 -151 670 -200 361 -71 776 -92 1189 -61 92 6 170 10 173 7 2 -2 0 -13 -6 -25 -15 -26 -3 -33 125 -65 495 -124 945 -154 1384 -90 182 26 630 129 670 154 9 6 -3 30 -49 96 -33 48 -61 91 -61 95 0 4 34 26 75 49 74 41 105 46 105 16 0 -37 88 -183 145 -240 108 -109 222 -152 379 -143 379 21 742 442 832 967 24 140 15 344 -21 465 -71 239 -217 395 -410 435 l-55 11 -100 307 c-55 169 -104 310 -109 315 -7 7 -449 -235 -564 -309 l-38 -25 88 -107 c48 -59 114 -140 146 -180 33 -40 58 -75 55 -77 -3 -3 -56 8 -119 24 -162 41 -359 77 -565 101 -267 32 -240 24 -269 80 -14 28 -23 50 -19 50 3 0 93 -20 201 -45 107 -25 203 -45 213 -45 24 0 42 47 38 101 -3 44 -3 44 -58 61 -30 9 -152 42 -270 73 -266 69 -250 65 -250 76 0 5 66 9 153 10 83 1 190 4 237 7 l85 7 -3 55 c-2 37 -8 59 -19 68 -12 9 -74 12 -225 12 -114 0 -208 3 -208 8 0 4 9 36 20 70 11 35 20 74 20 85 0 46 14 50 63 18 91 -62 207 -83 337 -61 63 11 80 18 109 47 18 18 35 32 36 31 2 -2 12 -130 23 -286 11 -156 23 -286 26 -289 9 -10 186 167 318 317 253 287 431 556 573 867 34 76 67 139 72 140 6 2 129 -131 274 -297 144 -165 268 -299 273 -297 21 7 27 183 23 574 l-5 392 192 96 c242 121 596 337 596 365 0 5 -20 10 -45 10 -188 0 -429 55 -593 135 -96 47 -126 68 -192 133 -67 66 -80 85 -93 132 -9 30 -34 122 -57 205 -48 175 -118 365 -199 545 -33 70 -64 152 -70 182 -21 95 -102 368 -143 482 -57 155 -136 329 -208 458 -34 61 -58 113 -53 118 4 4 207 36 450 71 244 35 443 67 443 71 0 28 -441 288 -725 428 -329 162 -557 249 -860 330 -66 18 -121 33 -123 35 -1 1 13 65 32 141 39 154 75 347 106 557 21 147 25 197 13 197 -5 0 -44 -21 -88 -46z m-54 -305 c-24 -163 -64 -327 -115 -476 -20 -56 -36 -107 -36 -112 0 -6 19 -15 43 -21 371 -96 848 -275 1147 -432 175 -91 371 -210 367 -222 -4 -11 -53 -18 -512 -76 -137 -18 -253 -35 -257 -39 -5 -4 26 -58 67 -121 106 -162 213 -380 268 -548 65 -196 63 -226 -7 -125 -77 110 -201 259 -307 368 -58 61 -115 128 -126 150 -11 22 -48 116 -83 209 -48 125 -69 170 -84 176 -12 5 -119 13 -239 19 -120 6 -223 13 -228 17 -5 3 -64 86 -130 185 -80 120 -125 179 -137 179 -10 0 -139 -22 -286 -49 -148 -27 -276 -47 -285 -43 -9 3 -85 64 -170 136 -84 72 -161 137 -171 144 -17 12 -38 0 -196 -113 -97 -69 -183 -125 -190 -123 -23 5 -445 381 -437 389 4 4 69 17 143 29 642 105 1199 281 1759 556 113 56 210 98 214 94 5 -5 0 -73 -12 -151z m-1043 -1053 c373 -57 645 -156 908 -331 343 -229 573 -493 769 -882 120 -239 201 -485 226 -685 14 -111 7 -354 -15 -519 -18 -130 -50 -297 -60 -306 -8 -9 -104 38 -256 124 -148 85 -271 167 -390 262 -105 83 -377 346 -455 440 -57 69 -75 75 -75 29 0 -18 29 -298 64 -623 36 -324 63 -592 61 -594 -15 -14 -371 172 -581 304 -449 281 -816 626 -1168 1100 -131 176 -143 191 -149 185 -3 -3 -26 -225 -51 -494 -25 -269 -48 -492 -52 -495 -18 -17 -245 270 -332 422 -62 107 -62 113 -11 273 86 270 240 554 442 814 50 65 63 88 54 96 -17 16 -168 65 -178 58 -17 -10 -130 -208 -194 -339 -267 -544 -338 -989 -244 -1532 29 -170 113 -470 173 -614 6 -14 25 -15 149 -11 146 5 228 -7 301 -43 37 -19 54 -19 185 1 128 19 270 54 539 133 452 134 566 134 910 0 361 -142 534 -189 690 -189 150 0 257 41 389 150 26 22 51 40 56 40 19 0 59 -114 70 -199 14 -112 -1 -166 -73 -275 -140 -208 -453 -394 -865 -511 -151 -43 -166 -43 -213 -1 -86 78 -94 156 -31 285 42 86 48 133 17 139 -13 2 -19 -9 -28 -52 -29 -140 -178 -176 -388 -92 l-92 37 -28 -19 c-92 -65 -308 -142 -399 -142 -77 0 -143 54 -143 116 0 19 9 56 19 84 15 41 16 51 6 60 -27 23 -70 -85 -62 -155 6 -60 36 -96 109 -135 118 -62 178 -128 178 -195 0 -31 -6 -31 -166 -5 -212 34 -467 107 -710 200 -169 66 -166 79 8 34 151 -38 151 -38 62 91 -41 61 -112 172 -156 248 l-81 137 -64 0 c-53 0 -63 -3 -63 -17 0 -10 34 -83 75 -162 41 -80 72 -147 69 -150 -6 -7 -188 54 -248 83 -29 14 -82 63 -160 148 -64 70 -121 130 -126 133 -5 3 -23 -16 -39 -42 -58 -93 -36 -93 -220 -3 -90 44 -167 80 -172 80 -5 0 -9 -29 -9 -65 l0 -65 50 -25 c28 -14 92 -44 143 -66 51 -23 94 -42 96 -44 5 -6 -137 -261 -153 -274 -26 -22 -83 -24 -155 -6 -68 16 -72 19 -163 113 -296 306 -494 654 -583 1027 -186 782 38 1548 625 2135 199 200 380 338 615 468 313 174 707 291 1095 326 105 9 549 -3 648 -18z m2150 -1762 c148 -345 264 -839 316 -1339 30 -284 46 -757 27 -769 -5 -3 -95 89 -200 204 -106 116 -195 210 -200 210 -4 0 -27 -53 -51 -117 -94 -254 -281 -583 -469 -823 -111 -142 -311 -362 -325 -357 -13 4 -33 248 -38 455 l-3 134 105 55 c264 139 430 282 514 442 44 86 58 157 54 283 -3 102 -2 104 40 202 154 359 245 811 227 1126 -6 103 -36 314 -51 364 -4 12 -2 17 7 14 7 -2 28 -40 47 -84z m-2983 -241 c104 -126 373 -398 498 -503 54 -46 95 -86 90 -90 -35 -34 -319 -122 -465 -145 -108 -17 -378 -19 -394 -3 -7 7 41 764 52 816 4 20 10 22 72 22 l67 0 80 -97z m1679 -116 c213 -233 476 -434 804 -616 131 -74 129 -67 82 -213 -98 -307 -303 -421 -655 -363 -158 26 -342 81 -475 142 -193 90 -292 116 -430 116 -125 0 -163 -7 -476 -83 -450 -110 -661 -144 -859 -138 -214 7 -282 59 -353 270 -23 67 -51 160 -62 205 -51 206 -87 532 -60 548 15 9 11 14 140 -166 52 -72 128 -170 168 -216 40 -45 68 -83 63 -83 -24 0 -183 41 -229 59 -93 37 -76 -13 45 -130 84 -83 164 -144 231 -178 23 -12 42 -26 42 -31 0 -6 -12 -29 -27 -51 -38 -57 -27 -62 102 -49 350 36 581 128 830 331 39 31 79 66 89 78 26 29 46 27 97 -12 75 -57 248 -171 388 -256 156 -94 538 -284 557 -277 8 3 11 17 8 38 -2 18 -23 206 -45 418 -22 212 -49 465 -59 564 -11 98 -20 180 -20 182 0 17 30 -10 104 -89z m-4071 -579 c19 -140 61 -320 107 -456 17 -52 29 -96 27 -98 -3 -3 -28 21 -56 53 -104 116 -168 294 -159 437 5 67 41 186 57 186 4 0 14 -55 24 -122z m6072 -108 c90 -41 208 -77 315 -96 49 -9 90 -20 90 -25 0 -9 -139 -94 -225 -137 -76 -38 -289 -122 -309 -122 -9 0 -17 13 -20 33 -6 36 -45 344 -53 420 l-6 48 71 -46 c39 -25 101 -59 137 -75z m-2660 -1176 c60 -25 205 -56 228 -49 62 19 65 18 83 -38 29 -88 50 -122 120 -186 126 -115 240 -151 349 -111 33 13 74 23 90 24 25 1 30 -3 33 -25 4 -36 -34 -65 -106 -80 -123 -25 -256 9 -369 96 l-48 37 -7 -59 c-5 -32 -26 -114 -49 -183 -32 -97 -39 -133 -35 -164 6 -36 5 -38 -16 -33 -13 4 -50 13 -83 21 -33 7 -73 19 -88 25 -16 6 -41 11 -56 11 -15 0 -32 5 -37 10 -6 6 -33 15 -60 20 -45 8 -117 25 -153 36 -11 4 -11 7 3 17 25 19 17 61 -11 65 -17 3 -26 -3 -33 -23 -6 -15 -8 -31 -4 -36 6 -11 -66 -1 -81 12 -6 4 -30 11 -54 15 -25 4 -40 11 -37 18 49 109 58 144 58 214 0 67 -4 82 -42 159 -23 46 -40 86 -38 87 3 2 75 22 129 36 19 5 78 32 130 59 52 27 101 50 109 50 8 0 42 -11 75 -25z m-1360 -178 c210 -88 564 -189 777 -222 105 -16 152 -34 135 -51 -9 -9 -187 11 -345 38 -236 40 -776 188 -757 207 14 14 90 61 100 61 6 1 46 -14 90 -33z m2299 -62 c3 -9 6 -36 6 -61 l0 -44 -26 20 c-34 27 -38 27 -127 -9 -42 -16 -86 -30 -100 -30 -28 0 -87 19 -87 28 0 4 42 20 93 35 50 16 117 39 147 52 66 28 86 30 94 9z m-2934 -203 c0 -5 -16 -50 -35 -100 -88 -231 -172 -561 -220 -859 l-7 -43 -78 7 c-57 5 -79 3 -85 -6 -4 -7 -16 -44 -26 -82 -9 -38 -20 -72 -22 -74 -8 -8 -370 15 -379 24 -4 4 -1 45 8 90 10 45 14 85 11 89 -4 3 -29 8 -57 11 -60 6 -60 4 -25 152 39 160 92 329 139 448 51 126 129 284 148 299 7 6 108 16 223 22 116 7 237 16 270 20 86 12 135 12 135 2z m1602 -362 c11 -6 44 -15 72 -19 63 -11 135 -27 202 -46 28 -8 63 -14 78 -14 15 0 35 -4 45 -10 10 -5 43 -14 72 -19 74 -14 147 -30 188 -43 19 -6 58 -13 85 -17 50 -6 52 -7 78 -61 33 -67 54 -156 68 -281 12 -114 21 -326 14 -343 -3 -7 -18 -11 -37 -9 -18 1 13 -8 68 -22 55 -13 124 -32 152 -41 50 -16 55 -16 93 1 66 30 55 10 -13 -23 -59 -29 -157 -117 -157 -141 0 -6 18 -16 40 -22 22 -7 38 -14 36 -17 -8 -7 -170 50 -181 65 -5 7 -28 15 -50 17 -22 2 -91 13 -154 25 -63 11 -129 21 -147 21 -18 0 -35 4 -38 8 -2 4 -22 6 -44 4 l-40 -4 2 -50 c1 -43 -3 -53 -27 -74 -39 -33 -91 -31 -267 11 -80 19 -152 35 -161 35 -9 0 -65 -23 -125 -51 -59 -28 -122 -53 -139 -55 -16 -2 -68 -11 -114 -21 -80 -16 -89 -16 -168 0 -268 55 -388 151 -291 232 64 54 130 75 264 87 144 12 203 6 183 -18 -10 -12 -24 -14 -53 -10 -66 10 -138 -17 -183 -68 -21 -23 -57 -58 -81 -76 -23 -19 -39 -37 -35 -41 13 -13 165 -22 228 -14 75 9 102 34 111 105 6 46 10 53 44 70 20 10 42 25 49 34 14 17 12 17 179 -15 109 -20 117 -21 245 -6 205 25 312 29 442 17 119 -11 120 -10 139 12 l18 23 -78 8 c-103 11 -439 0 -531 -16 -39 -7 -70 -10 -67 -6 2 4 42 13 89 20 47 7 82 16 78 22 -3 5 -21 6 -39 3 -109 -19 -104 -19 -104 0 0 11 4 34 10 53 13 48 24 189 22 314 -1 105 -3 115 -62 287 -33 98 -60 181 -60 184 0 10 30 7 52 -5z m-356 -149 l153 0 16 -52 c8 -28 15 -55 15 -59 0 -8 -14 -10 -298 -35 -106 -9 -194 -15 -197 -13 -2 3 6 42 17 88 l21 84 60 -7 c33 -3 129 -6 213 -6z m3039 -615 c51 -103 67 -173 72 -320 11 -284 -80 -551 -266 -785 -19 -24 -21 -24 -67 -12 -27 7 -51 15 -54 18 -2 3 6 33 19 67 107 281 186 555 216 742 18 110 24 307 12 370 l-8 40 21 -25 c11 -14 36 -56 55 -95z m-2694 -15 c24 -85 24 -86 -11 -99 l-30 -10 -40 79 c-22 44 -40 82 -40 84 0 8 34 14 69 13 33 -2 35 -4 52 -67z m1114 -60 c3 -6 -1 -13 -10 -16 -19 -8 -30 0 -20 15 8 14 22 14 30 1z m485 -30 c11 -7 8 -10 -16 -10 -17 0 -72 -3 -122 -6 -64 -5 -92 -4 -92 4 0 18 204 29 230 12z m-2540 -70 c0 -5 -9 -10 -20 -10 -11 0 -20 5 -20 10 0 6 9 10 20 10 11 0 20 -4 20 -10z m2592 -6 c25 -4 40 -13 44 -26 3 -11 4 -21 2 -23 -6 -6 -96 20 -138 39 l-35 15 45 0 c25 1 62 -2 82 -5z m-2187 -31 c7 -20 -2 -30 -37 -38 -23 -6 -28 -4 -28 11 0 24 29 54 45 48 7 -3 16 -13 20 -21z m2296 17 c17 0 28 -4 25 -9 -6 -10 -73 2 -84 15 -4 4 1 4 11 1 10 -4 32 -7 48 -7z m-398 -34 c26 -14 73 -30 102 -36 30 -6 55 -15 55 -20 0 -15 -56 -21 -101 -11 -24 6 -57 11 -72 11 -16 0 -43 10 -59 22 l-31 21 23 19 c28 23 25 23 83 -6z m497 10 c0 -9 -8 -12 -25 -8 -37 7 -41 22 -6 22 20 0 31 -5 31 -14z m-2780 -63 c0 -4 -25 -8 -55 -8 -71 0 -71 11 0 14 30 1 55 -2 55 -6z m2104 -5 c-6 -10 -4 -10 7 0 29 27 99 0 96 -37 -1 -22 -43 -46 -52 -31 -10 16 -71 12 -85 -5 -10 -12 -10 -18 0 -31 12 -13 10 -14 -13 -3 -21 9 -24 15 -16 26 6 7 9 22 6 33 -3 11 0 23 5 27 7 3 8 1 4 -5 -11 -18 10 -14 25 5 12 14 12 16 -1 9 -8 -4 -6 0 4 8 24 19 30 20 20 4z m-486 -21 c49 -11 52 -13 39 -31 -13 -18 -15 -18 -41 -1 -23 16 -138 43 -186 44 -8 1 -1 -9 15 -21 57 -44 167 -153 181 -180 20 -38 17 -45 -6 -20 -22 23 -66 28 -129 16 -27 -6 -30 -9 -19 -23 12 -14 11 -14 -4 -2 -10 7 -15 18 -12 23 7 11 -23 46 -51 59 -11 6 -7 -1 10 -15 16 -14 27 -27 25 -30 -3 -2 -25 15 -50 38 l-45 43 32 44 c18 24 33 52 33 63 0 17 6 18 78 12 42 -4 101 -12 130 -19z m1102 7 c0 -2 -19 -4 -42 -3 -35 1 -38 2 -18 8 23 7 60 4 60 -5z m-893 0 c-3 -3 -12 -4 -19 -1 -8 3 -5 6 6 6 11 1 17 -2 13 -5z m-102 -40 l40 -15 -35 6 c-19 3 -39 10 -44 15 -13 13 -8 12 39 -6z m-110 -29 c0 -5 -10 -11 -22 -13 -16 -2 -23 2 -23 13 0 11 7 15 23 13 12 -2 22 -7 22 -13z m247 -12 c38 -14 68 -30 68 -36 0 -5 -7 -4 -15 3 -8 7 -15 10 -15 7 0 -3 -3 -12 -6 -20 -3 -8 5 -24 17 -36 13 -12 19 -21 14 -21 -5 0 0 -6 11 -14 10 -8 16 -17 12 -21 -4 -4 -19 11 -35 33 -15 23 -34 43 -41 46 -19 8 -100 -14 -105 -28 -7 -18 -73 -7 -93 15 -14 15 -14 21 -4 34 11 13 9 19 -6 38 -12 13 -13 17 -3 9 9 -6 20 -8 24 -4 5 4 5 1 1 -5 -13 -23 62 -16 76 7 16 25 19 25 100 -7z m-902 1 c23 -9 39 -18 37 -20 -2 -3 -21 3 -43 11 -23 9 -31 10 -20 2 11 -6 53 -34 94 -62 115 -78 120 -80 72 -35 -29 27 -34 35 -15 22 17 -11 43 -34 59 -51 l30 -31 -73 0 c-57 0 -79 4 -101 20 -15 11 -30 17 -33 14 -5 -6 -67 23 -67 32 0 2 15 -3 33 -12 31 -16 31 -15 15 2 -10 10 -32 19 -49 20 -18 1 -37 11 -46 24 -9 12 -21 19 -30 16 -8 -3 -12 -2 -9 3 3 5 -1 12 -10 15 -8 3 -12 2 -9 -4 3 -6 1 -10 -4 -10 -22 0 -10 21 22 40 39 24 93 26 147 4z m-830 -14 c12 -8 11 -10 -7 -10 -13 0 -23 5 -23 10 0 13 11 13 30 0z m2165 -15 c-62 -17 -65 -18 -65 -4 0 5 4 8 9 4 5 -3 12 -1 16 5 3 5 25 10 48 9 l42 0 -50 -14z m-1125 -6 c0 -5 4 -8 9 -4 5 3 12 1 16 -5 9 -15 -17 -12 -39 5 -17 13 -18 15 -3 15 9 0 17 -5 17 -11z m965 1 c8 -13 -5 -13 -25 0 -13 8 -13 10 2 10 9 0 20 -4 23 -10z m-134 -31 c27 -12 49 -26 49 -31 0 -5 5 -6 10 -3 6 3 10 1 10 -4 0 -14 -3 -14 -35 1 -14 6 -25 15 -25 20 0 5 -4 6 -10 3 -5 -3 -10 -2 -10 2 0 5 -12 14 -27 20 -16 6 -24 11 -20 12 5 1 31 -9 58 -20z m203 9 c-15 -7 -28 -7 -40 1 -16 9 -12 10 21 10 35 0 37 -2 19 -11z m-947 -43 c17 -19 29 -35 26 -35 -9 0 -49 35 -50 44 -1 5 -7 13 -15 17 -7 5 -8 9 -2 9 6 0 24 -16 41 -35z m-583 -1 c9 -8 20 -12 26 -9 5 3 10 2 10 -3 0 -6 12 -13 26 -16 15 -4 24 -9 21 -12 -4 -5 -136 42 -146 51 -2 3 7 5 22 5 14 0 33 -7 41 -16z m1196 -10 c0 -17 -22 -14 -28 4 -2 7 3 12 12 12 9 0 16 -7 16 -16z m-95 -4 c-3 -5 -1 -10 4 -10 6 0 11 -5 11 -11 0 -8 -5 -8 -15 1 -13 11 -12 30 1 30 3 0 2 -4 -1 -10z m330 -8 c-3 -3 -11 0 -18 7 -9 10 -8 11 6 5 10 -3 15 -9 12 -12z m-2803 -137 c100 -36 186 -69 190 -73 6 -6 -338 -449 -397 -510 -15 -17 -103 -5 -295 38 -173 39 -212 50 -208 60 8 22 502 550 514 550 8 0 96 -29 196 -65z m557 -261 c89 -58 161 -108 160 -112 0 -4 -28 -59 -63 -122 -46 -85 -68 -116 -87 -121 -34 -10 -521 -10 -536 -1 -14 9 333 462 354 462 7 0 84 -48 172 -106z" fill="#ffffff"/>
<path d="M5600 3810 c-8 -5 -30 -10 -48 -10 -33 0 -33 -1 -27 -32 4 -18 13 -48 20 -68 12 -35 12 -35 76 -36 35 -1 67 3 70 8 4 5 -1 40 -10 76 -15 58 -20 67 -42 70 -13 1 -31 -2 -39 -8z" fill="#ffffff"/>
<path d="M5220 2600 c-19 -12 -2 -63 22 -68 22 -4 35 42 18 63 -14 17 -20 18 -40 5z" fill="#ffffff"/>
<path d="M5705 2510 c-22 -11 -52 -19 -66 -20 -14 0 -34 -6 -44 -14 -16 -12 -17 -16 -6 -30 7 -9 23 -16 35 -16 11 0 34 -7 50 -15 36 -19 49 -10 72 51 22 57 11 68 -41 44z" fill="#ffffff"/>
<path d="M5860 2305 c-7 -9 -10 -18 -7 -21 9 -9 184 -52 240 -59 29 -4 60 -9 69 -11 27 -8 10 36 -19 47 -43 16 -221 59 -246 59 -14 0 -30 -7 -37 -15z" fill="#ffffff"/>
<path d="M5638 2223 c12 -2 30 -2 40 0 9 3 -1 5 -23 4 -22 0 -30 -2 -17 -4z" fill="#ffffff"/>
<path d="M5738 2213 c6 -2 18 -2 25 0 6 3 1 5 -13 5 -14 0 -19 -2 -12 -5z" fill="#ffffff"/>
<path d="M8280 240 c-44 -44 -12 -123 50 -123 22 0 39 7 52 22 39 50 9 121 -52 121 -17 0 -39 -9 -50 -20z m94 -12 c21 -29 20 -57 -1 -80 -20 -22 -61 -23 -85 -1 -38 34 -10 103 42 103 18 0 34 -8 44 -22z" fill="#ffffff"/>
<path d="M8300 215 c-27 -33 15 -87 51 -65 8 6 5 9 -12 12 -16 2 -25 11 -27 26 -3 21 6 27 37 23 7 -2 10 2 6 8 -9 16 -41 13 -55 -4z" fill="#ffffff"/>
<path d="M8453 252 c-30 -19 -36 -99 -9 -120 23 -19 52 -22 72 -6 18 15 18 15 -8 10 -33 -7 -58 15 -58 52 0 39 14 54 43 50 14 -1 27 2 29 7 4 12 -52 18 -69 7z" fill="#ffffff"/>
<path d="M8566 238 c-24 -33 -20 -75 9 -104 27 -27 55 -26 85 2 18 18 19 86 1 108 -20 24 -77 21 -95 -6z m82 -43 c3 -28 -1 -43 -14 -52 -28 -21 -54 1 -54 46 0 45 6 53 40 49 21 -3 25 -9 28 -43z" fill="#ffffff"/>
<path d="M8716 238 c-41 -59 6 -139 73 -121 16 4 21 13 21 39 0 31 -3 34 -27 33 -17 -1 -21 -3 -10 -6 18 -5 23 -38 7 -48 -16 -10 -49 14 -56 39 -9 38 12 68 46 64 16 -1 31 2 32 7 2 6 -13 11 -34 13 -28 2 -40 -2 -52 -20z" fill="#ffffff"/>
<path d="M8850 190 c0 -78 17 -96 22 -23 l3 48 25 -48 c36 -68 50 -62 50 23 0 40 -4 70 -10 70 -5 0 -10 -24 -10 -52 l0 -53 -30 53 c-17 28 -35 52 -40 52 -6 0 -10 -31 -10 -70z" fill="#ffffff"/>
<path d="M8999 244 c-18 -22 -17 -90 1 -108 30 -28 58 -29 85 -2 48 48 23 126 -39 126 -19 0 -40 -7 -47 -16z m81 -29 c11 -28 -1 -70 -22 -78 -27 -9 -48 13 -48 52 0 44 5 51 37 51 16 0 27 -8 33 -25z" fill="#ffffff"/>
<path d="M9147 253 c-19 -18 -5 -52 28 -72 19 -11 35 -24 35 -30 0 -15 -30 -22 -50 -11 -13 7 -21 7 -25 0 -10 -16 41 -31 70 -20 39 15 34 56 -10 77 -44 21 -48 47 -5 41 20 -3 30 0 30 9 0 14 -61 19 -73 6z" fill="#ffffff"/>
<path d="M9260 190 c0 -40 4 -70 10 -70 6 0 10 11 10 25 0 20 5 25 24 25 45 0 72 50 44 78 -7 7 -29 12 -50 12 l-38 0 0 -70z m75 40 c9 -15 -14 -40 -36 -40 -14 0 -19 7 -19 25 0 20 5 25 24 25 14 0 28 -5 31 -10z" fill="#ffffff"/>
<path d="M9390 190 c0 -40 4 -70 10 -70 6 0 10 14 10 30 0 27 3 30 30 30 27 0 30 -3 30 -30 0 -16 5 -30 10 -30 6 0 10 30 10 70 0 40 -4 70 -10 70 -5 0 -10 -13 -10 -30 0 -27 -3 -30 -30 -30 -27 0 -30 3 -30 30 0 17 -4 30 -10 30 -6 0 -10 -30 -10 -70z" fill="#ffffff"/>
<path d="M9530 190 l0 -70 45 0 c25 0 45 5 45 10 0 6 -13 10 -30 10 -23 0 -30 4 -30 20 0 15 7 20 25 20 14 0 25 5 25 10 0 6 -11 10 -25 10 -18 0 -25 5 -25 20 0 16 7 20 30 20 17 0 30 5 30 10 0 6 -20 10 -45 10 l-45 0 0 -70z" fill="#ffffff"/>
<path d="M9650 190 c0 -40 4 -70 10 -70 6 0 10 11 10 23 0 39 13 40 41 5 31 -37 49 -33 25 5 -15 22 -15 26 -1 37 36 30 10 70 -47 70 l-38 0 0 -70z m76 39 c9 -16 -21 -43 -40 -36 -9 4 -16 16 -16 27 0 15 7 20 24 20 14 0 28 -5 32 -11z" fill="#ffffff"/>
<path d="M9780 190 l0 -70 46 0 c27 0 43 4 39 10 -3 6 -19 10 -36 10 -22 0 -29 5 -29 20 0 15 7 20 24 20 14 0 28 5 31 10 4 6 -7 10 -24 10 -24 0 -31 4 -31 20 0 15 7 20 29 20 17 0 33 5 36 10 4 6 -12 10 -39 10 l-46 0 0 -70z" fill="#ffffff"/>
</g>
</svg>